<mxfile host="app.diagrams.net" agent="Mozilla/5.0 (Macintosh; Intel Mac OS X 10_15_7) AppleWebKit/537.36 (KHTML, like Gecko) Chrome/130.0.0.0 Safari/537.36" version="25.0.1">
  <diagram name="Page-1" id="zFSA-vM6v2yHP-NJ1RIl">
    <mxGraphModel dx="1194" dy="789" grid="1" gridSize="10" guides="1" tooltips="1" connect="1" arrows="1" fold="1" page="1" pageScale="1" pageWidth="850" pageHeight="1100" math="0" shadow="0">
      <root>
        <mxCell id="0" />
        <mxCell id="1" parent="0" />
        <mxCell id="lg_RptiD22irAkathYto-9" style="edgeStyle=orthogonalEdgeStyle;rounded=0;orthogonalLoop=1;jettySize=auto;html=1;entryX=0;entryY=0.5;entryDx=0;entryDy=0;" edge="1" parent="1" source="cm0QUA97sO_7CGqtcgEQ-1" target="cm0QUA97sO_7CGqtcgEQ-5">
          <mxGeometry relative="1" as="geometry" />
        </mxCell>
        <mxCell id="cm0QUA97sO_7CGqtcgEQ-1" value="User" style="rounded=1;whiteSpace=wrap;html=1;" parent="1" vertex="1">
          <mxGeometry x="150" y="200" width="120" height="60" as="geometry" />
        </mxCell>
        <mxCell id="lg_RptiD22irAkathYto-12" style="edgeStyle=orthogonalEdgeStyle;rounded=0;orthogonalLoop=1;jettySize=auto;html=1;entryX=0;entryY=0.375;entryDx=0;entryDy=0;entryPerimeter=0;" edge="1" parent="1" source="cm0QUA97sO_7CGqtcgEQ-5" target="lg_RptiD22irAkathYto-2">
          <mxGeometry relative="1" as="geometry">
            <mxPoint x="500" y="240" as="targetPoint" />
            <Array as="points">
              <mxPoint x="460" y="220" />
              <mxPoint x="460" y="220" />
            </Array>
          </mxGeometry>
        </mxCell>
        <mxCell id="cm0QUA97sO_7CGqtcgEQ-5" value="Logical Gate" style="ellipse;whiteSpace=wrap;html=1;aspect=fixed;" parent="1" vertex="1">
          <mxGeometry x="350" y="190" width="80" height="80" as="geometry" />
        </mxCell>
        <mxCell id="cm0QUA97sO_7CGqtcgEQ-7" value="Open App" style="text;html=1;align=center;verticalAlign=middle;whiteSpace=wrap;rounded=0;" parent="1" vertex="1">
          <mxGeometry x="280" y="170" width="60" height="30" as="geometry" />
        </mxCell>
        <mxCell id="cm0QUA97sO_7CGqtcgEQ-10" value="DFD Level 0" style="text;html=1;align=center;verticalAlign=middle;whiteSpace=wrap;rounded=0;" parent="1" vertex="1">
          <mxGeometry x="80" y="90" width="60" height="30" as="geometry" />
        </mxCell>
        <mxCell id="cm0QUA97sO_7CGqtcgEQ-11" value="DFD Level 1" style="text;html=1;align=center;verticalAlign=middle;whiteSpace=wrap;rounded=0;" parent="1" vertex="1">
          <mxGeometry x="110" y="400" width="60" height="30" as="geometry" />
        </mxCell>
        <mxCell id="cm0QUA97sO_7CGqtcgEQ-23" style="edgeStyle=orthogonalEdgeStyle;rounded=0;orthogonalLoop=1;jettySize=auto;html=1;" parent="1" source="cm0QUA97sO_7CGqtcgEQ-12" edge="1">
          <mxGeometry relative="1" as="geometry">
            <mxPoint x="300" y="570" as="targetPoint" />
          </mxGeometry>
        </mxCell>
        <mxCell id="cm0QUA97sO_7CGqtcgEQ-32" value="Play Game" style="edgeLabel;html=1;align=center;verticalAlign=middle;resizable=0;points=[];" parent="cm0QUA97sO_7CGqtcgEQ-23" connectable="0" vertex="1">
          <mxGeometry x="-0.1773" y="-1" relative="1" as="geometry">
            <mxPoint as="offset" />
          </mxGeometry>
        </mxCell>
        <mxCell id="cm0QUA97sO_7CGqtcgEQ-12" value="User" style="rounded=1;whiteSpace=wrap;html=1;" parent="1" vertex="1">
          <mxGeometry x="80" y="539" width="120" height="60" as="geometry" />
        </mxCell>
        <mxCell id="cm0QUA97sO_7CGqtcgEQ-13" value="Enemies" style="ellipse;whiteSpace=wrap;html=1;aspect=fixed;" parent="1" vertex="1">
          <mxGeometry x="300" y="690" width="80" height="80" as="geometry" />
        </mxCell>
        <mxCell id="cm0QUA97sO_7CGqtcgEQ-14" value="Doors" style="ellipse;whiteSpace=wrap;html=1;aspect=fixed;" parent="1" vertex="1">
          <mxGeometry x="560" y="800" width="80" height="80" as="geometry" />
        </mxCell>
        <mxCell id="cm0QUA97sO_7CGqtcgEQ-28" style="edgeStyle=orthogonalEdgeStyle;rounded=0;orthogonalLoop=1;jettySize=auto;html=1;entryX=0.5;entryY=0;entryDx=0;entryDy=0;" parent="1" source="cm0QUA97sO_7CGqtcgEQ-15" target="cm0QUA97sO_7CGqtcgEQ-14" edge="1">
          <mxGeometry relative="1" as="geometry" />
        </mxCell>
        <mxCell id="cm0QUA97sO_7CGqtcgEQ-15" value="Gates" style="ellipse;whiteSpace=wrap;html=1;aspect=fixed;" parent="1" vertex="1">
          <mxGeometry x="560" y="660" width="80" height="80" as="geometry" />
        </mxCell>
        <mxCell id="cm0QUA97sO_7CGqtcgEQ-27" style="edgeStyle=orthogonalEdgeStyle;rounded=0;orthogonalLoop=1;jettySize=auto;html=1;entryX=0.5;entryY=0;entryDx=0;entryDy=0;" parent="1" source="cm0QUA97sO_7CGqtcgEQ-16" target="cm0QUA97sO_7CGqtcgEQ-15" edge="1">
          <mxGeometry relative="1" as="geometry" />
        </mxCell>
        <mxCell id="cm0QUA97sO_7CGqtcgEQ-16" value="Buttons" style="ellipse;whiteSpace=wrap;html=1;aspect=fixed;" parent="1" vertex="1">
          <mxGeometry x="560" y="529" width="80" height="80" as="geometry" />
        </mxCell>
        <mxCell id="cm0QUA97sO_7CGqtcgEQ-33" style="edgeStyle=orthogonalEdgeStyle;rounded=0;orthogonalLoop=1;jettySize=auto;html=1;" parent="1" source="cm0QUA97sO_7CGqtcgEQ-17" edge="1">
          <mxGeometry relative="1" as="geometry">
            <mxPoint x="300" y="550" as="targetPoint" />
          </mxGeometry>
        </mxCell>
        <mxCell id="cm0QUA97sO_7CGqtcgEQ-35" value="Save Game" style="edgeLabel;html=1;align=center;verticalAlign=middle;resizable=0;points=[];" parent="cm0QUA97sO_7CGqtcgEQ-33" connectable="0" vertex="1">
          <mxGeometry x="-0.4887" relative="1" as="geometry">
            <mxPoint as="offset" />
          </mxGeometry>
        </mxCell>
        <mxCell id="cm0QUA97sO_7CGqtcgEQ-17" value="Character" style="ellipse;whiteSpace=wrap;html=1;aspect=fixed;" parent="1" vertex="1">
          <mxGeometry x="400" y="410" width="80" height="80" as="geometry" />
        </mxCell>
        <mxCell id="cm0QUA97sO_7CGqtcgEQ-19" value="" style="endArrow=none;html=1;rounded=0;" parent="1" edge="1">
          <mxGeometry width="50" height="50" relative="1" as="geometry">
            <mxPoint x="300" y="589" as="sourcePoint" />
            <mxPoint x="380" y="589" as="targetPoint" />
          </mxGeometry>
        </mxCell>
        <mxCell id="cm0QUA97sO_7CGqtcgEQ-20" value="" style="endArrow=none;html=1;rounded=0;" parent="1" edge="1">
          <mxGeometry width="50" height="50" relative="1" as="geometry">
            <mxPoint x="300" y="549" as="sourcePoint" />
            <mxPoint x="380" y="549" as="targetPoint" />
          </mxGeometry>
        </mxCell>
        <mxCell id="cm0QUA97sO_7CGqtcgEQ-24" style="edgeStyle=orthogonalEdgeStyle;rounded=0;orthogonalLoop=1;jettySize=auto;html=1;entryX=0;entryY=1;entryDx=0;entryDy=0;" parent="1" target="cm0QUA97sO_7CGqtcgEQ-17" edge="1">
          <mxGeometry relative="1" as="geometry">
            <mxPoint x="370" y="550" as="sourcePoint" />
            <Array as="points">
              <mxPoint x="370" y="478" />
            </Array>
          </mxGeometry>
        </mxCell>
        <mxCell id="cm0QUA97sO_7CGqtcgEQ-31" value="Health and Map Position" style="edgeLabel;html=1;align=center;verticalAlign=middle;resizable=0;points=[];" parent="cm0QUA97sO_7CGqtcgEQ-24" connectable="0" vertex="1">
          <mxGeometry x="-0.2417" y="-1" relative="1" as="geometry">
            <mxPoint as="offset" />
          </mxGeometry>
        </mxCell>
        <mxCell id="cm0QUA97sO_7CGqtcgEQ-25" style="edgeStyle=orthogonalEdgeStyle;rounded=0;orthogonalLoop=1;jettySize=auto;html=1;entryX=0;entryY=0.5;entryDx=0;entryDy=0;" parent="1" source="cm0QUA97sO_7CGqtcgEQ-21" target="cm0QUA97sO_7CGqtcgEQ-16" edge="1">
          <mxGeometry relative="1" as="geometry" />
        </mxCell>
        <mxCell id="cm0QUA97sO_7CGqtcgEQ-30" value="On/Off" style="edgeLabel;html=1;align=center;verticalAlign=middle;resizable=0;points=[];" parent="cm0QUA97sO_7CGqtcgEQ-25" connectable="0" vertex="1">
          <mxGeometry x="-0.2421" relative="1" as="geometry">
            <mxPoint as="offset" />
          </mxGeometry>
        </mxCell>
        <mxCell id="cm0QUA97sO_7CGqtcgEQ-26" style="edgeStyle=orthogonalEdgeStyle;rounded=0;orthogonalLoop=1;jettySize=auto;html=1;" parent="1" target="cm0QUA97sO_7CGqtcgEQ-13" edge="1">
          <mxGeometry relative="1" as="geometry">
            <mxPoint x="340" y="590" as="sourcePoint" />
          </mxGeometry>
        </mxCell>
        <mxCell id="cm0QUA97sO_7CGqtcgEQ-29" value="Defeated/Active" style="edgeLabel;html=1;align=center;verticalAlign=middle;resizable=0;points=[];" parent="cm0QUA97sO_7CGqtcgEQ-26" connectable="0" vertex="1">
          <mxGeometry x="-0.027" relative="1" as="geometry">
            <mxPoint as="offset" />
          </mxGeometry>
        </mxCell>
        <mxCell id="cm0QUA97sO_7CGqtcgEQ-21" value="JSON File" style="text;html=1;align=center;verticalAlign=middle;whiteSpace=wrap;rounded=0;" parent="1" vertex="1">
          <mxGeometry x="310" y="559" width="60" height="20" as="geometry" />
        </mxCell>
        <mxCell id="lg_RptiD22irAkathYto-15" style="edgeStyle=orthogonalEdgeStyle;rounded=0;orthogonalLoop=1;jettySize=auto;html=1;entryX=0;entryY=0.5;entryDx=0;entryDy=0;" edge="1" parent="1" source="xA9a0mGivStNZ6-JXwGN-1" target="xA9a0mGivStNZ6-JXwGN-4">
          <mxGeometry relative="1" as="geometry" />
        </mxCell>
        <mxCell id="lg_RptiD22irAkathYto-16" value="Start app" style="edgeLabel;html=1;align=center;verticalAlign=middle;resizable=0;points=[];" vertex="1" connectable="0" parent="lg_RptiD22irAkathYto-15">
          <mxGeometry x="0.4" y="-1" relative="1" as="geometry">
            <mxPoint x="-26" y="-1" as="offset" />
          </mxGeometry>
        </mxCell>
        <mxCell id="xA9a0mGivStNZ6-JXwGN-1" value="User" style="rounded=1;whiteSpace=wrap;html=1;" parent="1" vertex="1">
          <mxGeometry y="1320" width="120" height="60" as="geometry" />
        </mxCell>
        <mxCell id="xA9a0mGivStNZ6-JXwGN-2" value="DFD Level 2" style="text;html=1;align=center;verticalAlign=middle;whiteSpace=wrap;rounded=0;" parent="1" vertex="1">
          <mxGeometry x="110" y="950" width="60" height="30" as="geometry" />
        </mxCell>
        <mxCell id="lg_RptiD22irAkathYto-27" style="edgeStyle=orthogonalEdgeStyle;rounded=0;orthogonalLoop=1;jettySize=auto;html=1;exitX=0;exitY=1;exitDx=0;exitDy=0;entryX=0;entryY=0;entryDx=0;entryDy=0;" edge="1" parent="1" source="xA9a0mGivStNZ6-JXwGN-3" target="xA9a0mGivStNZ6-JXwGN-21">
          <mxGeometry relative="1" as="geometry" />
        </mxCell>
        <mxCell id="lg_RptiD22irAkathYto-33" value="Save Data" style="edgeLabel;html=1;align=center;verticalAlign=middle;resizable=0;points=[];" vertex="1" connectable="0" parent="lg_RptiD22irAkathYto-27">
          <mxGeometry x="-0.1498" y="1" relative="1" as="geometry">
            <mxPoint as="offset" />
          </mxGeometry>
        </mxCell>
        <mxCell id="lg_RptiD22irAkathYto-36" style="edgeStyle=orthogonalEdgeStyle;rounded=0;orthogonalLoop=1;jettySize=auto;html=1;exitX=1;exitY=0;exitDx=0;exitDy=0;entryX=1;entryY=1;entryDx=0;entryDy=0;" edge="1" parent="1" source="xA9a0mGivStNZ6-JXwGN-3" target="xA9a0mGivStNZ6-JXwGN-16">
          <mxGeometry relative="1" as="geometry">
            <Array as="points">
              <mxPoint x="438" y="1228" />
            </Array>
          </mxGeometry>
        </mxCell>
        <mxCell id="lg_RptiD22irAkathYto-83" value="Load" style="edgeLabel;html=1;align=center;verticalAlign=middle;resizable=0;points=[];" vertex="1" connectable="0" parent="lg_RptiD22irAkathYto-36">
          <mxGeometry x="-0.0321" y="-2" relative="1" as="geometry">
            <mxPoint as="offset" />
          </mxGeometry>
        </mxCell>
        <mxCell id="lg_RptiD22irAkathYto-38" style="edgeStyle=orthogonalEdgeStyle;rounded=0;orthogonalLoop=1;jettySize=auto;html=1;" edge="1" parent="1" source="xA9a0mGivStNZ6-JXwGN-3" target="xA9a0mGivStNZ6-JXwGN-20">
          <mxGeometry relative="1" as="geometry">
            <Array as="points">
              <mxPoint x="550" y="1370" />
              <mxPoint x="550" y="1430" />
            </Array>
          </mxGeometry>
        </mxCell>
        <mxCell id="lg_RptiD22irAkathYto-70" value="Load" style="edgeLabel;html=1;align=center;verticalAlign=middle;resizable=0;points=[];" vertex="1" connectable="0" parent="lg_RptiD22irAkathYto-38">
          <mxGeometry x="0.0164" y="1" relative="1" as="geometry">
            <mxPoint as="offset" />
          </mxGeometry>
        </mxCell>
        <mxCell id="lg_RptiD22irAkathYto-41" style="edgeStyle=orthogonalEdgeStyle;rounded=0;orthogonalLoop=1;jettySize=auto;html=1;exitX=0.95;exitY=0.269;exitDx=0;exitDy=0;entryX=0;entryY=0.5;entryDx=0;entryDy=0;exitPerimeter=0;" edge="1" parent="1" source="xA9a0mGivStNZ6-JXwGN-3" target="xA9a0mGivStNZ6-JXwGN-26">
          <mxGeometry relative="1" as="geometry" />
        </mxCell>
        <mxCell id="lg_RptiD22irAkathYto-71" value="Load" style="edgeLabel;html=1;align=center;verticalAlign=middle;resizable=0;points=[];" vertex="1" connectable="0" parent="lg_RptiD22irAkathYto-41">
          <mxGeometry x="0.0428" y="-1" relative="1" as="geometry">
            <mxPoint as="offset" />
          </mxGeometry>
        </mxCell>
        <mxCell id="xA9a0mGivStNZ6-JXwGN-3" value="Data Persistence Manager" style="ellipse;whiteSpace=wrap;html=1;aspect=fixed;" parent="1" vertex="1">
          <mxGeometry x="370" y="1310" width="80" height="80" as="geometry" />
        </mxCell>
        <mxCell id="lg_RptiD22irAkathYto-18" style="edgeStyle=orthogonalEdgeStyle;rounded=0;orthogonalLoop=1;jettySize=auto;html=1;entryX=0;entryY=0.5;entryDx=0;entryDy=0;" edge="1" parent="1" source="xA9a0mGivStNZ6-JXwGN-4" target="xA9a0mGivStNZ6-JXwGN-3">
          <mxGeometry relative="1" as="geometry" />
        </mxCell>
        <mxCell id="lg_RptiD22irAkathYto-19" value="Play Game" style="edgeLabel;html=1;align=center;verticalAlign=middle;resizable=0;points=[];" vertex="1" connectable="0" parent="lg_RptiD22irAkathYto-18">
          <mxGeometry x="-0.3846" y="-1" relative="1" as="geometry">
            <mxPoint x="10" y="-1" as="offset" />
          </mxGeometry>
        </mxCell>
        <mxCell id="xA9a0mGivStNZ6-JXwGN-4" value="MainMenu" style="ellipse;whiteSpace=wrap;html=1;aspect=fixed;" parent="1" vertex="1">
          <mxGeometry x="200" y="1310" width="80" height="80" as="geometry" />
        </mxCell>
        <mxCell id="xA9a0mGivStNZ6-JXwGN-8" value="" style="endArrow=none;html=1;rounded=0;" parent="1" edge="1">
          <mxGeometry width="50" height="50" relative="1" as="geometry">
            <mxPoint x="370" y="1609" as="sourcePoint" />
            <mxPoint x="450" y="1609" as="targetPoint" />
          </mxGeometry>
        </mxCell>
        <mxCell id="xA9a0mGivStNZ6-JXwGN-9" value="" style="endArrow=none;html=1;rounded=0;" parent="1" edge="1">
          <mxGeometry width="50" height="50" relative="1" as="geometry">
            <mxPoint x="370" y="1569" as="sourcePoint" />
            <mxPoint x="450" y="1569" as="targetPoint" />
          </mxGeometry>
        </mxCell>
        <mxCell id="lg_RptiD22irAkathYto-30" style="edgeStyle=orthogonalEdgeStyle;rounded=0;orthogonalLoop=1;jettySize=auto;html=1;entryX=1;entryY=1;entryDx=0;entryDy=0;" edge="1" parent="1" target="xA9a0mGivStNZ6-JXwGN-21">
          <mxGeometry relative="1" as="geometry">
            <mxPoint x="438" y="1570" as="sourcePoint" />
            <Array as="points">
              <mxPoint x="438" y="1570" />
              <mxPoint x="438" y="1570" />
            </Array>
          </mxGeometry>
        </mxCell>
        <mxCell id="lg_RptiD22irAkathYto-34" value="Load" style="edgeLabel;html=1;align=center;verticalAlign=middle;resizable=0;points=[];" vertex="1" connectable="0" parent="lg_RptiD22irAkathYto-30">
          <mxGeometry x="0.0856" relative="1" as="geometry">
            <mxPoint y="-1" as="offset" />
          </mxGeometry>
        </mxCell>
        <mxCell id="xA9a0mGivStNZ6-JXwGN-10" value="JSON File" style="text;html=1;align=center;verticalAlign=middle;whiteSpace=wrap;rounded=0;" parent="1" vertex="1">
          <mxGeometry x="380" y="1579" width="60" height="20" as="geometry" />
        </mxCell>
        <mxCell id="xA9a0mGivStNZ6-JXwGN-13" value="Connected&lt;div&gt;Objects&lt;/div&gt;" style="ellipse;whiteSpace=wrap;html=1;aspect=fixed;" parent="1" vertex="1">
          <mxGeometry x="490" y="1660" width="80" height="80" as="geometry" />
        </mxCell>
        <mxCell id="lg_RptiD22irAkathYto-58" style="edgeStyle=orthogonalEdgeStyle;rounded=0;orthogonalLoop=1;jettySize=auto;html=1;exitX=0;exitY=0;exitDx=0;exitDy=0;entryX=0;entryY=1;entryDx=0;entryDy=0;" edge="1" parent="1" source="xA9a0mGivStNZ6-JXwGN-15" target="lg_RptiD22irAkathYto-55">
          <mxGeometry relative="1" as="geometry">
            <Array as="points">
              <mxPoint x="622" y="1578" />
            </Array>
          </mxGeometry>
        </mxCell>
        <mxCell id="lg_RptiD22irAkathYto-67" value="Save" style="edgeLabel;html=1;align=center;verticalAlign=middle;resizable=0;points=[];" vertex="1" connectable="0" parent="lg_RptiD22irAkathYto-58">
          <mxGeometry x="-0.2204" y="-1" relative="1" as="geometry">
            <mxPoint as="offset" />
          </mxGeometry>
        </mxCell>
        <mxCell id="xA9a0mGivStNZ6-JXwGN-15" value="Button ID" style="ellipse;whiteSpace=wrap;html=1;aspect=fixed;" parent="1" vertex="1">
          <mxGeometry x="610" y="1640" width="80" height="80" as="geometry" />
        </mxCell>
        <mxCell id="lg_RptiD22irAkathYto-22" style="edgeStyle=orthogonalEdgeStyle;rounded=0;orthogonalLoop=1;jettySize=auto;html=1;" edge="1" parent="1" source="xA9a0mGivStNZ6-JXwGN-16" target="xA9a0mGivStNZ6-JXwGN-3">
          <mxGeometry relative="1" as="geometry">
            <Array as="points">
              <mxPoint x="380" y="1300" />
              <mxPoint x="380" y="1300" />
            </Array>
          </mxGeometry>
        </mxCell>
        <mxCell id="lg_RptiD22irAkathYto-82" value="Save" style="edgeLabel;html=1;align=center;verticalAlign=middle;resizable=0;points=[];" vertex="1" connectable="0" parent="lg_RptiD22irAkathYto-22">
          <mxGeometry x="-0.0103" relative="1" as="geometry">
            <mxPoint as="offset" />
          </mxGeometry>
        </mxCell>
        <mxCell id="lg_RptiD22irAkathYto-23" style="edgeStyle=orthogonalEdgeStyle;rounded=0;orthogonalLoop=1;jettySize=auto;html=1;entryX=1;entryY=1;entryDx=0;entryDy=0;exitX=1;exitY=0;exitDx=0;exitDy=0;" edge="1" parent="1" source="xA9a0mGivStNZ6-JXwGN-16" target="xA9a0mGivStNZ6-JXwGN-23">
          <mxGeometry relative="1" as="geometry">
            <Array as="points" />
          </mxGeometry>
        </mxCell>
        <mxCell id="lg_RptiD22irAkathYto-86" value="Load" style="edgeLabel;html=1;align=center;verticalAlign=middle;resizable=0;points=[];" vertex="1" connectable="0" parent="lg_RptiD22irAkathYto-23">
          <mxGeometry x="0.0599" y="-3" relative="1" as="geometry">
            <mxPoint as="offset" />
          </mxGeometry>
        </mxCell>
        <mxCell id="lg_RptiD22irAkathYto-24" style="edgeStyle=orthogonalEdgeStyle;rounded=0;orthogonalLoop=1;jettySize=auto;html=1;entryX=0.5;entryY=1;entryDx=0;entryDy=0;" edge="1" parent="1" source="xA9a0mGivStNZ6-JXwGN-16" target="xA9a0mGivStNZ6-JXwGN-19">
          <mxGeometry relative="1" as="geometry" />
        </mxCell>
        <mxCell id="lg_RptiD22irAkathYto-80" value="Load" style="edgeLabel;html=1;align=center;verticalAlign=middle;resizable=0;points=[];" vertex="1" connectable="0" parent="lg_RptiD22irAkathYto-24">
          <mxGeometry x="-0.3833" y="-1" relative="1" as="geometry">
            <mxPoint as="offset" />
          </mxGeometry>
        </mxCell>
        <mxCell id="lg_RptiD22irAkathYto-25" style="edgeStyle=orthogonalEdgeStyle;rounded=0;orthogonalLoop=1;jettySize=auto;html=1;exitX=1;exitY=0.5;exitDx=0;exitDy=0;entryX=0.5;entryY=1;entryDx=0;entryDy=0;" edge="1" parent="1" source="xA9a0mGivStNZ6-JXwGN-16" target="xA9a0mGivStNZ6-JXwGN-24">
          <mxGeometry relative="1" as="geometry" />
        </mxCell>
        <mxCell id="lg_RptiD22irAkathYto-79" value="Load" style="edgeLabel;html=1;align=center;verticalAlign=middle;resizable=0;points=[];" vertex="1" connectable="0" parent="lg_RptiD22irAkathYto-25">
          <mxGeometry x="-0.3636" y="1" relative="1" as="geometry">
            <mxPoint y="1" as="offset" />
          </mxGeometry>
        </mxCell>
        <mxCell id="xA9a0mGivStNZ6-JXwGN-16" value="Player Script" style="ellipse;whiteSpace=wrap;html=1;aspect=fixed;" parent="1" vertex="1">
          <mxGeometry x="370" y="1160" width="80" height="80" as="geometry" />
        </mxCell>
        <mxCell id="lg_RptiD22irAkathYto-50" style="edgeStyle=orthogonalEdgeStyle;rounded=0;orthogonalLoop=1;jettySize=auto;html=1;entryX=1;entryY=1;entryDx=0;entryDy=0;" edge="1" parent="1" source="xA9a0mGivStNZ6-JXwGN-17" target="xA9a0mGivStNZ6-JXwGN-18">
          <mxGeometry relative="1" as="geometry" />
        </mxCell>
        <mxCell id="lg_RptiD22irAkathYto-53" style="edgeStyle=orthogonalEdgeStyle;rounded=0;orthogonalLoop=1;jettySize=auto;html=1;exitX=0;exitY=1;exitDx=0;exitDy=0;entryX=0;entryY=0;entryDx=0;entryDy=0;" edge="1" parent="1" source="xA9a0mGivStNZ6-JXwGN-17" target="xA9a0mGivStNZ6-JXwGN-26">
          <mxGeometry relative="1" as="geometry" />
        </mxCell>
        <mxCell id="lg_RptiD22irAkathYto-74" value="Save" style="edgeLabel;html=1;align=center;verticalAlign=middle;resizable=0;points=[];" vertex="1" connectable="0" parent="lg_RptiD22irAkathYto-53">
          <mxGeometry x="-0.0599" y="-3" relative="1" as="geometry">
            <mxPoint as="offset" />
          </mxGeometry>
        </mxCell>
        <mxCell id="xA9a0mGivStNZ6-JXwGN-17" value="Enemy Script" style="ellipse;whiteSpace=wrap;html=1;aspect=fixed;" parent="1" vertex="1">
          <mxGeometry x="650" y="1110" width="80" height="80" as="geometry" />
        </mxCell>
        <mxCell id="lg_RptiD22irAkathYto-51" style="edgeStyle=orthogonalEdgeStyle;rounded=0;orthogonalLoop=1;jettySize=auto;html=1;entryX=0;entryY=0;entryDx=0;entryDy=0;" edge="1" parent="1" source="xA9a0mGivStNZ6-JXwGN-18" target="xA9a0mGivStNZ6-JXwGN-17">
          <mxGeometry relative="1" as="geometry">
            <Array as="points">
              <mxPoint x="640" y="1122" />
            </Array>
          </mxGeometry>
        </mxCell>
        <mxCell id="lg_RptiD22irAkathYto-77" value="Save" style="edgeLabel;html=1;align=center;verticalAlign=middle;resizable=0;points=[];" vertex="1" connectable="0" parent="lg_RptiD22irAkathYto-51">
          <mxGeometry x="-0.2447" relative="1" as="geometry">
            <mxPoint as="offset" />
          </mxGeometry>
        </mxCell>
        <mxCell id="xA9a0mGivStNZ6-JXwGN-18" value="Enemy ID" style="ellipse;whiteSpace=wrap;html=1;aspect=fixed;" parent="1" vertex="1">
          <mxGeometry x="600" y="980" width="80" height="80" as="geometry" />
        </mxCell>
        <mxCell id="xA9a0mGivStNZ6-JXwGN-19" value="Player&#39;s Health" style="ellipse;whiteSpace=wrap;html=1;aspect=fixed;" parent="1" vertex="1">
          <mxGeometry x="240" y="1090" width="80" height="80" as="geometry" />
        </mxCell>
        <mxCell id="lg_RptiD22irAkathYto-63" style="edgeStyle=orthogonalEdgeStyle;rounded=0;orthogonalLoop=1;jettySize=auto;html=1;exitX=1;exitY=1;exitDx=0;exitDy=0;entryX=1;entryY=0;entryDx=0;entryDy=0;" edge="1" parent="1" source="xA9a0mGivStNZ6-JXwGN-20" target="lg_RptiD22irAkathYto-55">
          <mxGeometry relative="1" as="geometry" />
        </mxCell>
        <mxCell id="lg_RptiD22irAkathYto-65" value="Load" style="edgeLabel;html=1;align=center;verticalAlign=middle;resizable=0;points=[];" vertex="1" connectable="0" parent="lg_RptiD22irAkathYto-63">
          <mxGeometry x="-0.1419" y="1" relative="1" as="geometry">
            <mxPoint as="offset" />
          </mxGeometry>
        </mxCell>
        <mxCell id="xA9a0mGivStNZ6-JXwGN-20" value="Serializable Dictionary" style="ellipse;whiteSpace=wrap;html=1;aspect=fixed;" parent="1" vertex="1">
          <mxGeometry x="650" y="1390" width="80" height="80" as="geometry" />
        </mxCell>
        <mxCell id="lg_RptiD22irAkathYto-28" style="edgeStyle=orthogonalEdgeStyle;rounded=0;orthogonalLoop=1;jettySize=auto;html=1;exitX=1;exitY=0;exitDx=0;exitDy=0;entryX=1;entryY=1;entryDx=0;entryDy=0;" edge="1" parent="1" source="xA9a0mGivStNZ6-JXwGN-21" target="xA9a0mGivStNZ6-JXwGN-3">
          <mxGeometry relative="1" as="geometry" />
        </mxCell>
        <mxCell id="lg_RptiD22irAkathYto-35" value="Load Data" style="edgeLabel;html=1;align=center;verticalAlign=middle;resizable=0;points=[];" vertex="1" connectable="0" parent="lg_RptiD22irAkathYto-28">
          <mxGeometry x="-0.0681" y="-2" relative="1" as="geometry">
            <mxPoint as="offset" />
          </mxGeometry>
        </mxCell>
        <mxCell id="lg_RptiD22irAkathYto-31" style="edgeStyle=orthogonalEdgeStyle;rounded=0;orthogonalLoop=1;jettySize=auto;html=1;exitX=0;exitY=1;exitDx=0;exitDy=0;" edge="1" parent="1" source="xA9a0mGivStNZ6-JXwGN-21">
          <mxGeometry relative="1" as="geometry">
            <mxPoint x="382" y="1570" as="targetPoint" />
          </mxGeometry>
        </mxCell>
        <mxCell id="lg_RptiD22irAkathYto-32" value="Save" style="edgeLabel;html=1;align=center;verticalAlign=middle;resizable=0;points=[];" vertex="1" connectable="0" parent="lg_RptiD22irAkathYto-31">
          <mxGeometry x="-0.0974" relative="1" as="geometry">
            <mxPoint as="offset" />
          </mxGeometry>
        </mxCell>
        <mxCell id="xA9a0mGivStNZ6-JXwGN-21" value="File Data Handler" style="ellipse;whiteSpace=wrap;html=1;aspect=fixed;" parent="1" vertex="1">
          <mxGeometry x="370" y="1440" width="80" height="80" as="geometry" />
        </mxCell>
        <mxCell id="lg_RptiD22irAkathYto-45" style="edgeStyle=orthogonalEdgeStyle;rounded=0;orthogonalLoop=1;jettySize=auto;html=1;exitX=0;exitY=1;exitDx=0;exitDy=0;entryX=0;entryY=0;entryDx=0;entryDy=0;" edge="1" parent="1" source="xA9a0mGivStNZ6-JXwGN-23" target="xA9a0mGivStNZ6-JXwGN-16">
          <mxGeometry relative="1" as="geometry" />
        </mxCell>
        <mxCell id="lg_RptiD22irAkathYto-85" value="Save" style="edgeLabel;html=1;align=center;verticalAlign=middle;resizable=0;points=[];" vertex="1" connectable="0" parent="lg_RptiD22irAkathYto-45">
          <mxGeometry x="-0.1798" relative="1" as="geometry">
            <mxPoint as="offset" />
          </mxGeometry>
        </mxCell>
        <mxCell id="xA9a0mGivStNZ6-JXwGN-23" value="Player&#39;s Position" style="ellipse;whiteSpace=wrap;html=1;aspect=fixed;" parent="1" vertex="1">
          <mxGeometry x="370" y="1020" width="80" height="80" as="geometry" />
        </mxCell>
        <mxCell id="xA9a0mGivStNZ6-JXwGN-24" value="Respawn Point" style="ellipse;whiteSpace=wrap;html=1;aspect=fixed;" parent="1" vertex="1">
          <mxGeometry x="490" y="1090" width="80" height="80" as="geometry" />
        </mxCell>
        <mxCell id="lg_RptiD22irAkathYto-52" style="edgeStyle=orthogonalEdgeStyle;rounded=0;orthogonalLoop=1;jettySize=auto;html=1;entryX=1;entryY=0;entryDx=0;entryDy=0;" edge="1" parent="1" source="xA9a0mGivStNZ6-JXwGN-25" target="xA9a0mGivStNZ6-JXwGN-17">
          <mxGeometry relative="1" as="geometry">
            <Array as="points">
              <mxPoint x="730" y="1122" />
            </Array>
          </mxGeometry>
        </mxCell>
        <mxCell id="lg_RptiD22irAkathYto-76" value="Save" style="edgeLabel;html=1;align=center;verticalAlign=middle;resizable=0;points=[];" vertex="1" connectable="0" parent="lg_RptiD22irAkathYto-52">
          <mxGeometry x="-0.1691" relative="1" as="geometry">
            <mxPoint as="offset" />
          </mxGeometry>
        </mxCell>
        <mxCell id="xA9a0mGivStNZ6-JXwGN-25" value="Dead/Alive Status" style="ellipse;whiteSpace=wrap;html=1;aspect=fixed;" parent="1" vertex="1">
          <mxGeometry x="690" y="980" width="80" height="80" as="geometry" />
        </mxCell>
        <mxCell id="lg_RptiD22irAkathYto-42" style="edgeStyle=orthogonalEdgeStyle;rounded=0;orthogonalLoop=1;jettySize=auto;html=1;exitX=0;exitY=1;exitDx=0;exitDy=0;" edge="1" parent="1" source="xA9a0mGivStNZ6-JXwGN-26">
          <mxGeometry relative="1" as="geometry">
            <mxPoint x="450" y="1340" as="targetPoint" />
            <Array as="points">
              <mxPoint x="662" y="1340" />
              <mxPoint x="450" y="1340" />
            </Array>
          </mxGeometry>
        </mxCell>
        <mxCell id="lg_RptiD22irAkathYto-72" value="Save" style="edgeLabel;html=1;align=center;verticalAlign=middle;resizable=0;points=[];" vertex="1" connectable="0" parent="lg_RptiD22irAkathYto-42">
          <mxGeometry x="-0.2767" relative="1" as="geometry">
            <mxPoint as="offset" />
          </mxGeometry>
        </mxCell>
        <mxCell id="lg_RptiD22irAkathYto-54" style="edgeStyle=orthogonalEdgeStyle;rounded=0;orthogonalLoop=1;jettySize=auto;html=1;exitX=1;exitY=0;exitDx=0;exitDy=0;entryX=1;entryY=1;entryDx=0;entryDy=0;" edge="1" parent="1" source="xA9a0mGivStNZ6-JXwGN-26" target="xA9a0mGivStNZ6-JXwGN-17">
          <mxGeometry relative="1" as="geometry" />
        </mxCell>
        <mxCell id="lg_RptiD22irAkathYto-75" value="Load" style="edgeLabel;html=1;align=center;verticalAlign=middle;resizable=0;points=[];" vertex="1" connectable="0" parent="lg_RptiD22irAkathYto-54">
          <mxGeometry x="0.0599" relative="1" as="geometry">
            <mxPoint as="offset" />
          </mxGeometry>
        </mxCell>
        <mxCell id="xA9a0mGivStNZ6-JXwGN-26" value="Serializable Dictionary" style="ellipse;whiteSpace=wrap;html=1;aspect=fixed;" parent="1" vertex="1">
          <mxGeometry x="650" y="1250" width="80" height="80" as="geometry" />
        </mxCell>
        <mxCell id="lg_RptiD22irAkathYto-59" style="edgeStyle=orthogonalEdgeStyle;rounded=0;orthogonalLoop=1;jettySize=auto;html=1;exitX=1;exitY=0;exitDx=0;exitDy=0;entryX=1;entryY=1;entryDx=0;entryDy=0;" edge="1" parent="1" source="xA9a0mGivStNZ6-JXwGN-27" target="lg_RptiD22irAkathYto-55">
          <mxGeometry relative="1" as="geometry">
            <Array as="points">
              <mxPoint x="768" y="1578" />
            </Array>
          </mxGeometry>
        </mxCell>
        <mxCell id="lg_RptiD22irAkathYto-68" value="Save" style="edgeLabel;html=1;align=center;verticalAlign=middle;resizable=0;points=[];" vertex="1" connectable="0" parent="lg_RptiD22irAkathYto-59">
          <mxGeometry x="-0.3322" y="-2" relative="1" as="geometry">
            <mxPoint as="offset" />
          </mxGeometry>
        </mxCell>
        <mxCell id="xA9a0mGivStNZ6-JXwGN-27" value="On/Off Status" style="ellipse;whiteSpace=wrap;html=1;aspect=fixed;" parent="1" vertex="1">
          <mxGeometry x="700" y="1640" width="80" height="80" as="geometry" />
        </mxCell>
        <mxCell id="lg_RptiD22irAkathYto-2" value="Level and Game Objects" style="ellipse;whiteSpace=wrap;html=1;aspect=fixed;" vertex="1" parent="1">
          <mxGeometry x="530" y="190" width="80" height="80" as="geometry" />
        </mxCell>
        <mxCell id="lg_RptiD22irAkathYto-3" value="Initialize Game Objects" style="text;html=1;align=center;verticalAlign=middle;resizable=0;points=[];autosize=1;strokeColor=none;fillColor=none;" vertex="1" parent="1">
          <mxGeometry x="405" y="170" width="150" height="30" as="geometry" />
        </mxCell>
        <mxCell id="lg_RptiD22irAkathYto-8" value="Save Data" style="text;html=1;align=center;verticalAlign=middle;whiteSpace=wrap;rounded=0;" vertex="1" parent="1">
          <mxGeometry x="450" y="260" width="60" height="30" as="geometry" />
        </mxCell>
        <mxCell id="lg_RptiD22irAkathYto-13" style="edgeStyle=orthogonalEdgeStyle;rounded=0;orthogonalLoop=1;jettySize=auto;html=1;entryX=1.013;entryY=0.663;entryDx=0;entryDy=0;entryPerimeter=0;" edge="1" parent="1" source="lg_RptiD22irAkathYto-2" target="cm0QUA97sO_7CGqtcgEQ-5">
          <mxGeometry relative="1" as="geometry">
            <Array as="points">
              <mxPoint x="510" y="243" />
              <mxPoint x="510" y="243" />
            </Array>
          </mxGeometry>
        </mxCell>
        <mxCell id="lg_RptiD22irAkathYto-43" style="edgeStyle=orthogonalEdgeStyle;rounded=0;orthogonalLoop=1;jettySize=auto;html=1;exitX=0;exitY=0;exitDx=0;exitDy=0;entryX=1.025;entryY=0.619;entryDx=0;entryDy=0;entryPerimeter=0;" edge="1" parent="1" source="xA9a0mGivStNZ6-JXwGN-20" target="xA9a0mGivStNZ6-JXwGN-3">
          <mxGeometry relative="1" as="geometry">
            <Array as="points">
              <mxPoint x="662" y="1360" />
            </Array>
          </mxGeometry>
        </mxCell>
        <mxCell id="lg_RptiD22irAkathYto-73" value="Save" style="edgeLabel;html=1;align=center;verticalAlign=middle;resizable=0;points=[];" vertex="1" connectable="0" parent="lg_RptiD22irAkathYto-43">
          <mxGeometry x="-0.1671" y="2" relative="1" as="geometry">
            <mxPoint as="offset" />
          </mxGeometry>
        </mxCell>
        <mxCell id="lg_RptiD22irAkathYto-46" value="Save" style="edgeStyle=orthogonalEdgeStyle;rounded=0;orthogonalLoop=1;jettySize=auto;html=1;exitX=0;exitY=1;exitDx=0;exitDy=0;entryX=0.038;entryY=0.719;entryDx=0;entryDy=0;entryPerimeter=0;" edge="1" parent="1" source="xA9a0mGivStNZ6-JXwGN-19" target="xA9a0mGivStNZ6-JXwGN-16">
          <mxGeometry relative="1" as="geometry">
            <Array as="points">
              <mxPoint x="252" y="1218" />
            </Array>
          </mxGeometry>
        </mxCell>
        <mxCell id="lg_RptiD22irAkathYto-48" style="edgeStyle=orthogonalEdgeStyle;rounded=0;orthogonalLoop=1;jettySize=auto;html=1;exitX=1;exitY=1;exitDx=0;exitDy=0;entryX=0.95;entryY=0.731;entryDx=0;entryDy=0;entryPerimeter=0;" edge="1" parent="1" source="xA9a0mGivStNZ6-JXwGN-24" target="xA9a0mGivStNZ6-JXwGN-16">
          <mxGeometry relative="1" as="geometry">
            <Array as="points">
              <mxPoint x="558" y="1218" />
            </Array>
          </mxGeometry>
        </mxCell>
        <mxCell id="lg_RptiD22irAkathYto-81" value="Save" style="edgeLabel;html=1;align=center;verticalAlign=middle;resizable=0;points=[];" vertex="1" connectable="0" parent="lg_RptiD22irAkathYto-48">
          <mxGeometry x="0.3044" y="4" relative="1" as="geometry">
            <mxPoint as="offset" />
          </mxGeometry>
        </mxCell>
        <mxCell id="lg_RptiD22irAkathYto-49" style="edgeStyle=orthogonalEdgeStyle;rounded=0;orthogonalLoop=1;jettySize=auto;html=1;entryX=0;entryY=1;entryDx=0;entryDy=0;" edge="1" parent="1" source="xA9a0mGivStNZ6-JXwGN-17" target="xA9a0mGivStNZ6-JXwGN-25">
          <mxGeometry relative="1" as="geometry" />
        </mxCell>
        <mxCell id="lg_RptiD22irAkathYto-78" value="Load" style="edgeLabel;html=1;align=center;verticalAlign=middle;resizable=0;points=[];" vertex="1" connectable="0" parent="lg_RptiD22irAkathYto-49">
          <mxGeometry x="-0.6322" relative="1" as="geometry">
            <mxPoint y="1" as="offset" />
          </mxGeometry>
        </mxCell>
        <mxCell id="lg_RptiD22irAkathYto-56" style="edgeStyle=orthogonalEdgeStyle;rounded=0;orthogonalLoop=1;jettySize=auto;html=1;entryX=0.5;entryY=0;entryDx=0;entryDy=0;" edge="1" parent="1" source="lg_RptiD22irAkathYto-55" target="xA9a0mGivStNZ6-JXwGN-15">
          <mxGeometry relative="1" as="geometry" />
        </mxCell>
        <mxCell id="lg_RptiD22irAkathYto-57" style="edgeStyle=orthogonalEdgeStyle;rounded=0;orthogonalLoop=1;jettySize=auto;html=1;entryX=0.5;entryY=0;entryDx=0;entryDy=0;" edge="1" parent="1" source="lg_RptiD22irAkathYto-55" target="xA9a0mGivStNZ6-JXwGN-27">
          <mxGeometry relative="1" as="geometry" />
        </mxCell>
        <mxCell id="lg_RptiD22irAkathYto-69" value="Load" style="edgeLabel;html=1;align=center;verticalAlign=middle;resizable=0;points=[];" vertex="1" connectable="0" parent="lg_RptiD22irAkathYto-57">
          <mxGeometry x="-0.71" y="1" relative="1" as="geometry">
            <mxPoint as="offset" />
          </mxGeometry>
        </mxCell>
        <mxCell id="lg_RptiD22irAkathYto-60" style="edgeStyle=orthogonalEdgeStyle;rounded=0;orthogonalLoop=1;jettySize=auto;html=1;entryX=0.5;entryY=0;entryDx=0;entryDy=0;" edge="1" parent="1" source="lg_RptiD22irAkathYto-55" target="xA9a0mGivStNZ6-JXwGN-13">
          <mxGeometry relative="1" as="geometry" />
        </mxCell>
        <mxCell id="lg_RptiD22irAkathYto-84" value="Button Output" style="edgeLabel;html=1;align=center;verticalAlign=middle;resizable=0;points=[];" vertex="1" connectable="0" parent="lg_RptiD22irAkathYto-60">
          <mxGeometry x="-0.4522" y="1" relative="1" as="geometry">
            <mxPoint as="offset" />
          </mxGeometry>
        </mxCell>
        <mxCell id="lg_RptiD22irAkathYto-64" style="edgeStyle=orthogonalEdgeStyle;rounded=0;orthogonalLoop=1;jettySize=auto;html=1;exitX=0;exitY=0;exitDx=0;exitDy=0;entryX=0;entryY=1;entryDx=0;entryDy=0;" edge="1" parent="1" source="lg_RptiD22irAkathYto-55" target="xA9a0mGivStNZ6-JXwGN-20">
          <mxGeometry relative="1" as="geometry" />
        </mxCell>
        <mxCell id="lg_RptiD22irAkathYto-66" value="Save" style="edgeLabel;html=1;align=center;verticalAlign=middle;resizable=0;points=[];" vertex="1" connectable="0" parent="lg_RptiD22irAkathYto-64">
          <mxGeometry x="0.0473" y="-3" relative="1" as="geometry">
            <mxPoint as="offset" />
          </mxGeometry>
        </mxCell>
        <mxCell id="lg_RptiD22irAkathYto-55" value="Button Script" style="ellipse;whiteSpace=wrap;html=1;aspect=fixed;" vertex="1" parent="1">
          <mxGeometry x="650" y="1510" width="80" height="80" as="geometry" />
        </mxCell>
      </root>
    </mxGraphModel>
  </diagram>
</mxfile>
